<?xml version="1.0" encoding="UTF-8"?><svg id="Layer_2" xmlns="http://www.w3.org/2000/svg" xmlns:xlink="http://www.w3.org/1999/xlink" viewBox="0 0 331.08 343.53"><defs><style>.cls-1{fill:none;}.cls-1,.cls-2{stroke:#000;stroke-linecap:round;stroke-linejoin:round;stroke-width:20px;}.cls-3{clip-path:url(#clippath);}.cls-4,.cls-2{fill:none;}</style><clipPath id="clippath"><rect class="cls-4" y="181.53" width="331" height="162"/></clipPath></defs><g id="Layer_1-2"><path class="cls-1" d="M204.81,130.55c-7.52,15.12-21.18,25.25-36.74,25.25s-29.21-10.12-36.74-25.24c-.07-.16-.15-.31-.22-.47-.08-.15-.15-.3-.22-.45-.08,.16-.15,.31-.22,.46-.08,.16-.15,.31-.23,.46l8.1-120.53v-.03h58.29v.03l7.98,120.52Z"/><path class="cls-1" d="M74.7,37.76l-18.62,92.79c-7.22,14.49-20.06,24.4-34.82,25.19l-7.34-12.71L74.7,37.76Z"/><path class="cls-1" d="M321.08,143.03l-7.3,12.64c-14.3-1.21-26.68-10.97-33.72-25.07v-.06l-18.13-89.96,.03,.05h0v.02l59.11,102.38Z"/><g><path class="cls-1" d="M138.54,10.03l-8.1,120.53c-7.52,15.12-21.17,25.24-36.74,25.24s-29.21-10.12-36.74-25.24c-.07-.15-.15-.3-.22-.46-.07-.15-.15-.3-.22-.45-.07,.15-.15,.3-.21,.44-.08,.16-.16,.31-.23,.46l18.62-92.79,16.01-27.73h47.83Z"/><path class="cls-1" d="M280.05,130.54c-.07-.14-.14-.29-.22-.44-.06-.15-.14-.3-.21-.45-.07,.15-.15,.3-.22,.44-.07,.16-.15,.31-.22,.47-7.53,15.12-21.18,25.24-36.74,25.24s-29.22-10.13-36.74-25.25c-.08-.15-.15-.3-.23-.46-.07-.15-.14-.3-.22-.45-.07,.15-.14,.3-.22,.45-.07,.16-.15,.31-.22,.46l-7.98-120.52h47.46l17.64,30.55,.03,.05h0v.02l18.08,89.89Z"/></g><g class="cls-3"><polygon class="cls-2" points="321.08 143.03 313.78 155.67 244.29 276.03 90.71 276.03 21.26 155.74 13.92 143.03 74.7 37.76 90.71 10.03 244.29 10.03 261.93 40.58 261.96 40.63 261.97 40.64 261.97 40.65 321.08 143.03"/></g></g></svg>